<svg xmlns="http://www.w3.org/2000/svg" xmlns:xlink="http://www.w3.org/1999/xlink" data-name="Layer 1" width="671.52209" height="516.5519" viewBox="0 0 671.52209 516.5519"><path d="M740.79422,579.7781c-41.39342,0-86.37473-6.15129-131.054-17.97964-55.25177-14.62727-105.91173-36.70549-146.503-63.84869l1.202-1.79765c40.39583,27.01171,90.83135,48.98906,145.85446,63.55507,49.72364,13.16444,99.82012,19.264,144.8553,17.65433l.07816,2.161Q748.09308,579.77915,740.79422,579.7781Z" transform="translate(-264.23896 -191.72405)" fill="#ffff00"/><path d="M689.96157,583.02274c-41.39341,0-86.37473-6.15129-131.054-17.97964-55.25178-14.62728-105.91174-36.70549-146.503-63.8487l1.202-1.79764c40.39584,27.01171,90.83135,48.98905,145.85446,63.55507,49.72364,13.16443,99.82012,19.264,144.8553,17.65433l.07816,2.161Q697.26043,583.02379,689.96157,583.02274Z" transform="translate(-264.23896 -191.72405)" fill="#ffff00"/><path d="M468.87453,462.69114a16.78275,16.78275,0,0,0-16.764,16.764,787.72309,787.72309,0,0,0-6.35989,141.64658c.12727,3.02072.26827,5.78373.432,8.44957.23765,4.40223.53972,9.0495.89724,13.81506.20543,2.8116.42195,5.63164.65907,8.44218.39713,4.57756.83334,9.22905,1.29754,13.82457.29151,2.80737.59411,5.62847.91783,8.438.62158,5.51863,1.325,11.17562,2.15148,17.29417A16.80547,16.80547,0,0,0,468.87453,708.202H750.07641a16.78275,16.78275,0,0,0,16.764-16.764l.01267-.11618c1.25265-5.70663,2.41922-11.522,3.468-17.28572.56085-3.03868,1.04511-5.79852,1.48026-8.4369.789-4.80359,1.49083-9.453,2.08441-13.81823.40611-2.93094.77366-5.769,1.09158-8.439.52334-4.36949.99705-8.88579,1.44752-13.80766.24662-2.67535.47264-5.43836.69181-8.44641v-.00106A491.7331,491.7331,0,0,0,766.853,479.57128l-.01267-.11618a16.78275,16.78275,0,0,0-16.764-16.764Z" transform="translate(-264.23896 -191.72405)" fill="#febe10"/><path d="M620.39285,534.45867c-60.92989,0-125.4931-5.53658-209.992-16.61292h-.009a17.78279,17.78279,0,0,1-17.65486-15.8683,16.33291,16.33291,0,0,1-.11143-1.973V449.17182a2.57984,2.57984,0,0,1,.01478-.32531,17.88428,17.88428,0,0,1,17.83072-17.52019c147.00994-19.98853,236.31351-19.98642,398.07536.00422h.00739a17.88113,17.88113,0,0,1,17.761,17.57407,1.97187,1.97187,0,0,1,.01056.26721v50.83265a16.37335,16.37335,0,0,1-.112,1.97826A17.807,17.807,0,0,1,808.47988,517.85C738.59132,528.921,681.308,534.45867,620.39285,534.45867Z" transform="translate(-264.23896 -191.72405)" fill="#ffff00"/><path d="M630.16637,569.76417H593.19789a17.76765,17.76765,0,0,1-17.74728-17.74728V417.70877a17.76766,17.76766,0,0,1,17.74728-17.74728h36.96848a17.76777,17.76777,0,0,1,17.7478,17.74728V552.01689A17.76776,17.76776,0,0,1,630.16637,569.76417Z" transform="translate(-264.23896 -191.72405)" fill="#febe10"/><path d="M714.09809,374.26152a46.871,46.871,0,0,0-1.40969-7.4518,48.31277,48.31277,0,0,0-2.74017-7.13362,41.985,41.985,0,0,0-18.90375-19.6287c-10.31172-5.07621-22.10746-5.49163-33.19456-3.04587a65.60467,65.60467,0,0,0-25.6438,12.00579A66.68654,66.68654,0,0,0,621.511,359.0944c-3.285,3.94159-9.39592,14.77084-9.83636,15.77344A65.65846,65.65846,0,0,0,597.0819,353.993a68.60755,68.60755,0,0,0-25.136-15.19088,63.33207,63.33207,0,0,0-15.40609-3.13149,49.03154,49.03154,0,0,0-16.52565,1.44184,41.63138,41.63138,0,0,0-23.564,17.22518,43.45194,43.45194,0,0,0-7.35958,26.50381,44.58105,44.58105,0,0,0,3.03115,13.83922,52.76431,52.76431,0,0,0,3.31237,6.94859,54.05393,54.05393,0,0,0,4.40341,6.30932,49.87922,49.87922,0,0,0,24.5047,16.31765c10.27468,3.17546,21.17358,3.27923,31.739,1.78841,10.84972-1.531,21.29326-5.04321,31.512-8.88968,1.36322-.51311,2.7207-1.04115,4.08022-1.564,9.08449,3.49475,18.246,6.86534,27.75547,9.0046a83.57644,83.57644,0,0,0,32.6722,1.31028,52.428,52.428,0,0,0,27.09377-13.23441,48.65189,48.65189,0,0,0,14.03619-24.37452A42.07665,42.07665,0,0,0,714.09809,374.26152ZM573.25957,415.59611a72.84607,72.84607,0,0,1-17.67.10338,54.84149,54.84149,0,0,1-12.28767-3.27051,38.632,38.632,0,0,1-20.70364-20.55571,41.35361,41.35361,0,0,1-2.50543-9.10759,37.705,37.705,0,0,1-.00257-8.35782,39.33793,39.33793,0,0,1,2.34958-8.52819,40.18986,40.18986,0,0,1,4.411-7.55155,37.90379,37.90379,0,0,1,5.69013-5.71521,34.63915,34.63915,0,0,1,6.37382-3.73484,38.95352,38.95352,0,0,1,8.33584-2.22983,49.33657,49.33657,0,0,1,11.62186.09076,60.0992,60.0992,0,0,1,13.38578,3.68976,63.17378,63.17378,0,0,1,12.88963,7.51511,61.87593,61.87593,0,0,1,9.96053,9.93062A61.03434,61.03434,0,0,1,602.361,380.3633a63.26732,63.26732,0,0,1,3.89466,14.39293l.00838.07221a65.6,65.6,0,0,0-.42479,7.46784c.00185.96128.0439,1.92136.09229,2.88091a5.74665,5.74665,0,0,0-1.12683,1.51664,181.72746,181.72746,0,0,1-23.1162,7.33093Q577.50951,414.9895,573.25957,415.59611Zm130.01831-32.83069a41.34678,41.34678,0,0,1-2.50583,9.10871A38.41847,38.41847,0,0,1,680.06881,412.429a54.84257,54.84257,0,0,1-12.2878,3.27051,72.86439,72.86439,0,0,1-17.70212-.1072c-10.43444-1.49208-20.50012-4.7857-30.346-8.46146-.40538-.15137-.8076-.31092-1.21252-.46347a5.64344,5.64344,0,0,0-1.07818-1.5,64.7573,64.7573,0,0,0-.32306-10.4382,63.27186,63.27186,0,0,1,3.89057-14.36586,61.03446,61.03446,0,0,1,7.25218-12.48834,61.87273,61.87273,0,0,1,9.96092-9.93109,63.17378,63.17378,0,0,1,12.88963-7.51511,60.10468,60.10468,0,0,1,13.38591-3.68976,49.33815,49.33815,0,0,1,11.6216-.09076,38.95859,38.95859,0,0,1,8.336,2.22983,34.63817,34.63817,0,0,1,6.37428,3.73517,37.89835,37.89835,0,0,1,5.68987,5.71521,40.19532,40.19532,0,0,1,4.41081,7.55122,39.33847,39.33847,0,0,1,2.34957,8.52819A37.70565,37.70565,0,0,1,703.27788,382.76542Z" transform="translate(-264.23896 -191.72405)" fill="#febe10"/><circle cx="234.91885" cy="377.49935" r="6.48927" fill="#ffff00"/><circle cx="281.42532" cy="361.27616" r="6.48927" fill="#ffff00"/><circle cx="260.87595" cy="412.10881" r="6.48927" fill="#ffff00"/><circle cx="453.39108" cy="377.49935" r="6.48927" fill="#ffff00"/><circle cx="406.88462" cy="361.27616" r="6.48927" fill="#ffff00"/><circle cx="427.43398" cy="412.10881" r="6.48927" fill="#ffff00"/><circle cx="458.7988" cy="491.06164" r="6.48927" fill="#ffff00"/><circle cx="475.022" cy="444.55518" r="6.48927" fill="#ffff00"/><circle cx="424.18935" cy="465.10453" r="6.48927" fill="#ffff00"/><circle cx="272.77294" cy="491.06164" r="6.48927" fill="#ffff00"/><circle cx="288.99614" cy="444.55518" r="6.48927" fill="#ffff00"/><circle cx="238.16349" cy="465.10453" r="6.48927" fill="#ffff00"/><path id="e3b13650-ec26-4d46-b148-6e027bc06f3e-83" data-name="Path 2961" d="M688.85406,230.95885a15.505,15.505,0,0,0,15.09905-1.77382c5.488-4.09309,7.54528-11.23784,9.26848-17.86242l5.09038-19.59856-8.59743,5.21981c-6.1831,3.75309-12.508,7.63053-16.97107,13.32833s-6.72093,13.68235-3.77964,20.2943" transform="translate(-264.23896 -191.72405)" fill="#ffff00"/><path id="fe24b413-2f3e-41ab-87c6-b6db4596196d-84" data-name="Path 2961" d="M458.90992,398.36947a15.50508,15.50508,0,0,0,2.42942-15.00753c-2.43349-6.39922-8.74159-10.33464-14.64091-13.80633l-17.455-10.2635,2.6655,9.69832c1.91612,6.97459,3.913,14.11963,8.17055,19.97257s11.3184,10.21134,18.4831,9.19343" transform="translate(-264.23896 -191.72405)" fill="#ffff00"/><path id="a5193a92-e661-4e54-a5ba-e6f2c93163f3-85" data-name="Path 2961" d="M868.81573,700.12072a15.50505,15.50505,0,0,0,2.42943-15.00753c-2.43349-6.39922-8.74159-10.33464-14.64091-13.80633l-17.455-10.2635,2.66551,9.69832c1.91612,6.97459,3.913,14.11963,8.17055,19.97257s11.3184,10.21134,18.4831,9.19343" transform="translate(-264.23896 -191.72405)" fill="#ffff00"/><circle cx="274.93604" cy="116.84683" r="8.65237" fill="#fd6584"/><circle cx="44.56681" cy="372.09162" r="8.65237" fill="#fd6584"/><circle cx="639.41694" cy="301.79115" r="8.65237" fill="#fd6584"/><circle cx="35.91444" cy="154.70093" r="8.65237" fill="#febe10"/><circle cx="571.27956" cy="401.29335" r="8.65237" fill="#febe10"/><circle cx="588.58429" cy="138.47775" r="8.65237" fill="#febe10"/><path d="M473.44627,476.466c-.74792,1.1831-2.5614,1.01117-3.57972.27153-1.41366-1.0268-.956-3.00456.01749-4.17314,3.09392-3.71413,8.21092.20712,8.90113,3.89565A9.27938,9.27938,0,0,1,474.41893,485.7c-3.53,2.09176-8.11518,1.04275-11.15017-1.46083-6.331-5.22252-4.60725-15.679,2.42494-19.4573,4.48787-2.41126,10.16158-1.35295,14.58259.66691,4.97662,2.2737,9.256,5.75872,13.85821,8.66365a77.26931,77.26931,0,0,0,33.376,11.39673c2.07536.21164,2.06059-3.03451,0-3.24464a74.22262,74.22262,0,0,1-19.17778-4.61774,84.28,84.28,0,0,1-17.23256-9.45844c-5.41882-3.7143-11.08-7.32243-17.78609-7.93619a15.42963,15.42963,0,0,0-14.22369,6.18907,15.75693,15.75693,0,0,0-2.36808,13.822,14.59255,14.59255,0,0,0,11.12376,9.57724,11.9295,11.9295,0,0,0,12.57661-5.8106c2.46831-4.2689,2.388-10.00318-1.34011-13.54246a8.60681,8.60681,0,0,0-8.369-2.27617,7.36267,7.36267,0,0,0-4.97852,6.33629c-.35972,5.54119,7.50617,8.31229,10.51282,3.55618,1.119-1.77015-1.68757-3.4-2.80165-1.63763Z" transform="translate(-264.23896 -191.72405)" fill="#febe10"/><path d="M750.9124,476.466c.74791,1.1831,2.5614,1.01117,3.57972.27153,1.41366-1.0268.956-3.00456-.0175-4.17314-3.09392-3.71413-8.21091.20712-8.90113,3.89565A9.27937,9.27937,0,0,0,749.93974,485.7c3.53,2.09176,8.11518,1.04275,11.15017-1.46083,6.331-5.22252,4.60725-15.679-2.42494-19.4573-4.48788-2.41126-10.16159-1.35295-14.58259.66691-4.97663,2.2737-9.256,5.75872-13.85821,8.66365a77.26931,77.26931,0,0,1-33.376,11.39673c-2.07536.21164-2.06059-3.03451,0-3.24464a74.22279,74.22279,0,0,0,19.17779-4.61774,84.28024,84.28024,0,0,0,17.23256-9.45844c5.41882-3.7143,11.08-7.32243,17.78608-7.93619a15.42961,15.42961,0,0,1,14.22369,6.18907,15.75693,15.75693,0,0,1,2.36809,13.822,14.59257,14.59257,0,0,1-11.12376,9.57724,11.92951,11.92951,0,0,1-12.57662-5.8106c-2.46831-4.2689-2.388-10.00318,1.34011-13.54246a8.60682,8.60682,0,0,1,8.369-2.27617,7.36268,7.36268,0,0,1,4.97853,6.33629c.35972,5.54119-7.50618,8.31229-10.51282,3.55618-1.119-1.77015,1.68756-3.4,2.80165-1.63763Z" transform="translate(-264.23896 -191.72405)" fill="#febe10"/><polygon points="96.295 39.328 92.009 44.705 76.852 35.739 81.137 30.362 96.295 39.328" fill="#febe10"/><polygon points="112.11 62.43 115.895 68.079 99.972 75.999 96.187 70.351 112.11 62.43" fill="#febe10"/><polygon points="128.593 37.872 136.157 38.14 135.404 53.967 127.839 53.7 128.593 37.872" fill="#febe10"/><polygon points="631.66 370.281 627.374 375.658 612.217 366.692 616.503 361.315 631.66 370.281" fill="#febe10"/><polygon points="647.475 393.383 651.26 399.032 635.337 406.952 631.552 401.303 647.475 393.383" fill="#febe10"/><polygon points="663.958 368.825 671.522 369.093 670.769 384.92 663.204 384.653 663.958 368.825" fill="#febe10"/></svg>